<svg width="643" height="175" viewBox="0 0 643 175" fill="none" xmlns="http://www.w3.org/2000/svg">
<path d="M65.3242 6.99999H102.449L167.574 172H127.699L115.699 138.875H52.1992L40.0742 172H0.0742186L65.3242 6.99999ZM64.6992 106.125H103.324L84.1992 52H83.8242L64.6992 106.125ZM175.27 172V-5.84126e-06H213.27V84.375C214.02 82.0417 215.936 79.5 219.02 76.75C222.186 73.9167 226.311 71.5 231.395 69.5C236.561 67.4167 242.395 66.375 248.895 66.375C258.895 66.375 267.561 68.8333 274.895 73.75C282.228 78.6667 287.895 85.25 291.895 93.5C295.895 101.667 297.895 110.75 297.895 120.75C297.895 130.75 295.895 139.875 291.895 148.125C287.895 156.292 282.228 162.833 274.895 167.75C267.561 172.583 258.895 175 248.895 175C243.395 175 238.186 174 233.27 172C228.436 170.083 224.228 167.625 220.645 164.625C217.145 161.542 214.561 158.458 212.895 155.375V172H175.27ZM260.645 120.75C260.645 116.083 259.603 111.917 257.52 108.25C255.52 104.5 252.728 101.583 249.145 99.5C245.645 97.3333 241.686 96.25 237.27 96.25C232.686 96.25 228.561 97.3333 224.895 99.5C221.311 101.583 218.478 104.5 216.395 108.25C214.311 111.917 213.27 116.083 213.27 120.75C213.27 125.417 214.311 129.625 216.395 133.375C218.478 137.042 221.311 139.917 224.895 142C228.561 144.083 232.686 145.125 237.27 145.125C241.686 145.125 245.645 144.083 249.145 142C252.728 139.917 255.52 137.042 257.52 133.375C259.603 129.625 260.645 125.417 260.645 120.75ZM362.793 175C351.543 175 341.543 172.708 332.793 168.125C324.126 163.458 317.293 157.083 312.293 149C307.376 140.833 304.918 131.5 304.918 121C304.918 110.5 307.376 101.167 312.293 93C317.293 84.75 324.126 78.25 332.793 73.5C341.543 68.75 351.543 66.375 362.793 66.375C374.043 66.375 383.96 68.75 392.543 73.5C401.126 78.25 407.835 84.75 412.668 93C417.501 101.167 419.918 110.5 419.918 121C419.918 131.5 417.501 140.833 412.668 149C407.835 157.083 401.126 163.458 392.543 168.125C383.96 172.708 374.043 175 362.793 175ZM362.793 143.75C367.126 143.75 370.876 142.792 374.043 140.875C377.21 138.958 379.668 136.25 381.418 132.75C383.168 129.25 384.043 125.292 384.043 120.875C384.043 116.375 383.168 112.375 381.418 108.875C379.668 105.375 377.21 102.625 374.043 100.625C370.876 98.625 367.126 97.625 362.793 97.625C358.46 97.625 354.668 98.625 351.418 100.625C348.251 102.625 345.751 105.375 343.918 108.875C342.168 112.375 341.293 116.375 341.293 120.875C341.293 125.292 342.168 129.25 343.918 132.75C345.751 136.25 348.251 138.958 351.418 140.875C354.668 142.792 358.46 143.75 362.793 143.75ZM470.693 116.875C470.693 125.042 472.235 131.583 475.318 136.5C478.402 141.333 483.568 143.75 490.818 143.75C498.235 143.75 503.443 141.333 506.443 136.5C509.527 131.583 511.068 125.042 511.068 116.875V69.375H548.568V120.875C548.568 131.875 546.277 141.458 541.693 149.625C537.193 157.708 530.652 163.958 522.068 168.375C513.485 172.792 503.068 175 490.818 175C478.652 175 468.277 172.792 459.693 168.375C451.11 163.958 444.568 157.708 440.068 149.625C435.568 141.458 433.318 131.875 433.318 120.875V69.375H470.693V116.875ZM556.93 69.375H574.43V27.25H612.055V69.375H635.055V100.625H612.055V129.25C612.055 133.5 612.68 136.958 613.93 139.625C615.18 142.208 617.471 143.5 620.805 143.5C623.055 143.5 624.971 143 626.555 142C628.138 141 629.096 140.333 629.43 140L642.43 167C641.846 167.5 640.013 168.417 636.93 169.75C633.93 171.083 630.096 172.292 625.43 173.375C620.763 174.458 615.555 175 609.805 175C599.555 175 591.096 172.125 584.43 166.375C577.763 160.542 574.43 151.583 574.43 139.5V100.625H556.93V69.375Z" fill="#EEEFF4"/>
</svg>
