<svg width="24" height="376" viewBox="0 0 24 376" fill="none" xmlns="http://www.w3.org/2000/svg">
<g clip-path="url(#clip0_0_1431)">
<rect x="14" width="1" height="104" fill="#C8CCD8"/>
<path d="M19.88 156.59V158.525L8 163.007V160.991L10.718 160.01V155.114L8 154.124V152.099L19.88 156.59ZM12.401 155.726V159.398L17.576 157.571V157.544L12.401 155.726ZM19.88 182.204V185.75C19.88 186.404 19.79 187.016 19.61 187.586C19.436 188.162 19.139 188.627 18.719 188.981C18.305 189.335 17.732 189.512 17 189.512C16.508 189.512 16.064 189.416 15.668 189.224C15.272 189.038 14.951 188.801 14.705 188.513C14.459 188.225 14.309 187.931 14.255 187.631C14.231 187.883 14.153 188.147 14.021 188.423C13.895 188.705 13.715 188.969 13.481 189.215C13.247 189.467 12.953 189.671 12.599 189.827C12.245 189.983 11.831 190.061 11.357 190.061C10.697 190.061 10.115 189.923 9.611 189.647C9.107 189.371 8.711 188.96 8.423 188.414C8.141 187.868 8 187.184 8 186.362V182.204H19.88ZM9.557 184.094V186.056C9.557 186.572 9.644 186.974 9.818 187.262C9.992 187.556 10.223 187.766 10.511 187.892C10.805 188.018 11.126 188.081 11.474 188.081C12.044 188.081 12.491 187.898 12.815 187.532C13.139 187.166 13.301 186.641 13.301 185.957V184.094H9.557ZM14.831 184.094V185.804C14.831 186.218 14.915 186.56 15.083 186.83C15.257 187.1 15.485 187.301 15.767 187.433C16.055 187.565 16.355 187.631 16.667 187.631C17.297 187.631 17.729 187.448 17.963 187.082C18.203 186.716 18.323 186.227 18.323 185.615V184.094H14.831ZM13.949 211.346C13.133 211.346 12.392 211.517 11.726 211.859C11.066 212.201 10.541 212.672 10.151 213.272C9.767 213.872 9.575 214.562 9.575 215.342C9.575 216.134 9.767 216.827 10.151 217.421C10.541 218.021 11.066 218.489 11.726 218.825C12.392 219.167 13.133 219.338 13.949 219.338C14.765 219.338 15.503 219.167 16.163 218.825C16.823 218.489 17.345 218.021 17.729 217.421C18.113 216.827 18.305 216.134 18.305 215.342C18.305 214.562 18.113 213.872 17.729 213.272C17.345 212.672 16.823 212.201 16.163 211.859C15.503 211.517 14.765 211.346 13.949 211.346ZM13.949 209.375C14.813 209.375 15.617 209.525 16.361 209.825C17.111 210.131 17.765 210.551 18.323 211.085C18.881 211.625 19.316 212.258 19.628 212.984C19.94 213.71 20.096 214.496 20.096 215.342C20.096 216.2 19.94 216.989 19.628 217.709C19.316 218.435 18.881 219.068 18.323 219.608C17.765 220.148 17.111 220.565 16.361 220.859C15.617 221.153 14.813 221.3 13.949 221.3C13.079 221.3 12.269 221.153 11.519 220.859C10.775 220.571 10.121 220.16 9.557 219.626C8.999 219.092 8.564 218.462 8.252 217.736C7.94 217.01 7.784 216.212 7.784 215.342C7.784 214.466 7.94 213.662 8.252 212.93C8.564 212.204 8.999 211.574 9.557 211.04C10.121 210.512 10.775 210.101 11.519 209.807C12.269 209.519 13.079 209.375 13.949 209.375ZM19.88 248.274V250.164H12.527C11.549 250.164 10.703 249.969 9.989 249.579C9.281 249.195 8.735 248.658 8.351 247.968C7.973 247.278 7.784 246.474 7.784 245.556C7.784 244.644 7.973 243.84 8.351 243.144C8.735 242.448 9.281 241.905 9.989 241.515C10.703 241.125 11.549 240.93 12.527 240.93H19.88V242.82H12.626C11.978 242.82 11.423 242.937 10.961 243.171C10.499 243.411 10.145 243.735 9.899 244.143C9.653 244.557 9.53 245.028 9.53 245.556C9.53 246.084 9.653 246.552 9.899 246.96C10.145 247.368 10.499 247.689 10.961 247.923C11.423 248.157 11.978 248.274 12.626 248.274H19.88ZM18.188 272.681V269.594H19.88V277.667H18.188V274.58H8V272.681H18.188ZM19.88 327.111V329.001H12.527C11.549 329.001 10.703 328.806 9.989 328.416C9.281 328.032 8.735 327.495 8.351 326.805C7.973 326.115 7.784 325.311 7.784 324.393C7.784 323.481 7.973 322.677 8.351 321.981C8.735 321.285 9.281 320.742 9.989 320.352C10.703 319.962 11.549 319.767 12.527 319.767H19.88V321.657H12.626C11.978 321.657 11.423 321.774 10.961 322.008C10.499 322.248 10.145 322.572 9.899 322.98C9.653 323.394 9.53 323.865 9.53 324.393C9.53 324.921 9.653 325.389 9.899 325.797C10.145 326.205 10.499 326.526 10.961 326.76C11.423 326.994 11.978 327.111 12.626 327.111H19.88ZM20.096 353.04C20.096 353.736 20.015 354.339 19.853 354.849C19.697 355.365 19.529 355.773 19.349 356.073C19.175 356.373 19.061 356.553 19.007 356.613L17.468 355.668C17.546 355.578 17.654 355.416 17.792 355.182C17.936 354.954 18.065 354.672 18.179 354.336C18.293 354.006 18.35 353.637 18.35 353.229C18.35 352.617 18.23 352.131 17.99 351.771C17.756 351.411 17.414 351.231 16.964 351.231C16.664 351.231 16.4 351.327 16.172 351.519C15.944 351.711 15.731 351.984 15.533 352.338C15.335 352.698 15.134 353.127 14.93 353.625C14.756 354.045 14.558 354.453 14.336 354.849C14.114 355.251 13.853 355.611 13.553 355.929C13.253 356.247 12.905 356.499 12.509 356.685C12.113 356.877 11.657 356.973 11.141 356.973C10.601 356.973 10.121 356.862 9.701 356.64C9.287 356.418 8.936 356.112 8.648 355.722C8.366 355.332 8.15 354.882 8 354.372C7.856 353.868 7.784 353.328 7.784 352.752C7.784 351.996 7.874 351.315 8.054 350.709C8.24 350.109 8.432 349.623 8.63 349.251C8.834 348.879 8.966 348.663 9.026 348.603L10.637 349.602C10.577 349.674 10.487 349.806 10.367 349.998C10.253 350.196 10.13 350.439 9.998 350.727C9.872 351.015 9.764 351.333 9.674 351.681C9.59 352.035 9.548 352.401 9.548 352.779C9.548 353.505 9.704 354.054 10.016 354.426C10.334 354.798 10.742 354.984 11.24 354.984C11.618 354.984 11.945 354.864 12.221 354.624C12.503 354.39 12.758 354.066 12.986 353.652C13.214 353.244 13.439 352.779 13.661 352.257C13.895 351.723 14.159 351.228 14.453 350.772C14.747 350.322 15.104 349.959 15.524 349.683C15.95 349.407 16.466 349.269 17.072 349.269C17.678 349.269 18.206 349.44 18.656 349.782C19.112 350.13 19.466 350.589 19.718 351.159C19.97 351.729 20.096 352.356 20.096 353.04Z" fill="#C8CCD8"/>
</g>
<defs>
<clipPath id="clip0_0_1431">
<rect width="24" height="376" fill="white"/>
</clipPath>
</defs>
</svg>
