<svg width="24" height="272" viewBox="0 0 24 272" fill="none" xmlns="http://www.w3.org/2000/svg">
<g clip-path="url(#clip0_0_1945)">
<rect x="14" width="1" height="104" fill="#C8CCD8"/>
<path d="M13.112 160.01V154.799H8V152.918H19.88V154.799H14.795V160.01H19.88V161.882H8V160.01H13.112ZM13.949 183.626C13.133 183.626 12.392 183.797 11.726 184.139C11.066 184.481 10.541 184.952 10.151 185.552C9.767 186.152 9.575 186.842 9.575 187.622C9.575 188.414 9.767 189.107 10.151 189.701C10.541 190.301 11.066 190.769 11.726 191.105C12.392 191.447 13.133 191.618 13.949 191.618C14.765 191.618 15.503 191.447 16.163 191.105C16.823 190.769 17.345 190.301 17.729 189.701C18.113 189.107 18.305 188.414 18.305 187.622C18.305 186.842 18.113 186.152 17.729 185.552C17.345 184.952 16.823 184.481 16.163 184.139C15.503 183.797 14.765 183.626 13.949 183.626ZM13.949 181.655C14.813 181.655 15.617 181.805 16.361 182.105C17.111 182.411 17.765 182.831 18.323 183.365C18.881 183.905 19.316 184.538 19.628 185.264C19.94 185.99 20.096 186.776 20.096 187.622C20.096 188.48 19.94 189.269 19.628 189.989C19.316 190.715 18.881 191.348 18.323 191.888C17.765 192.428 17.111 192.845 16.361 193.139C15.617 193.433 14.813 193.58 13.949 193.58C13.079 193.58 12.269 193.433 11.519 193.139C10.775 192.851 10.121 192.44 9.557 191.906C8.999 191.372 8.564 190.742 8.252 190.016C7.94 189.29 7.784 188.492 7.784 187.622C7.784 186.746 7.94 185.942 8.252 185.21C8.564 184.484 8.999 183.854 9.557 183.32C10.121 182.792 10.775 182.381 11.519 182.087C12.269 181.799 13.079 181.655 13.949 181.655ZM19.88 224.639H8L8 222.749H16.091L17.612 222.839L15.902 222.479L8.756 219.878V218.015L15.902 215.423L17.612 215.063L16.091 215.153H8V213.263H19.88V215.846L10.988 218.816L10.277 218.951L10.988 219.077L19.88 222.065V224.639ZM19.88 245.045V252.245H18.188V246.926H14.777V252.155H13.13V246.926H9.692V252.245H8V245.045H19.88Z" fill="#C8CCD8"/>
</g>
<defs>
<clipPath id="clip0_0_1945">
<rect width="24" height="272" fill="white"/>
</clipPath>
</defs>
</svg>
