<svg width="930" height="175" viewBox="0 0 930 175" fill="none" xmlns="http://www.w3.org/2000/svg">
<path d="M177.375 172H132.5L104.5 56.875H111.25L83.25 172H38.125L0.5 6.99999H43.375L63.25 122.75H62.75L93.75 6.99999H121.875L153 122.75H152.5L172.375 6.99999H215.25L177.375 172ZM254.453 128.75C254.703 132.417 255.87 135.667 257.953 138.5C260.036 141.333 262.911 143.583 266.578 145.25C270.328 146.833 274.745 147.625 279.828 147.625C284.661 147.625 288.995 147.125 292.828 146.125C296.745 145.125 300.12 143.875 302.953 142.375C305.87 140.875 308.12 139.333 309.703 137.75L324.453 161.25C322.37 163.5 319.411 165.708 315.578 167.875C311.828 169.958 306.87 171.667 300.703 173C294.536 174.333 286.745 175 277.328 175C265.995 175 255.911 172.875 247.078 168.625C238.245 164.375 231.286 158.125 226.203 149.875C221.12 141.625 218.578 131.542 218.578 119.625C218.578 109.625 220.745 100.625 225.078 92.625C229.495 84.5417 235.87 78.1667 244.203 73.5C252.536 68.75 262.578 66.375 274.328 66.375C285.495 66.375 295.161 68.4167 303.328 72.5C311.578 76.5833 317.911 82.6667 322.328 90.75C326.828 98.75 329.078 108.75 329.078 120.75C329.078 121.417 329.036 122.75 328.953 124.75C328.953 126.75 328.87 128.083 328.703 128.75H254.453ZM293.328 108.875C293.245 106.208 292.536 103.583 291.203 101C289.87 98.3333 287.87 96.1667 285.203 94.5C282.536 92.75 279.12 91.875 274.953 91.875C270.786 91.875 267.245 92.7083 264.328 94.375C261.495 95.9583 259.328 98.0417 257.828 100.625C256.328 103.208 255.495 105.958 255.328 108.875H293.328ZM381.715 172H343.59V-5.84126e-06H381.715V172ZM456.84 145.125C461.59 145.125 465.507 144.333 468.59 142.75C471.673 141.083 473.757 139.75 474.84 138.75L492.215 164.5C490.882 165.583 488.59 167 485.34 168.75C482.09 170.417 478.007 171.875 473.09 173.125C468.257 174.375 462.715 175 456.465 175C444.715 175 434.382 172.792 425.465 168.375C416.548 163.875 409.59 157.542 404.59 149.375C399.673 141.208 397.215 131.625 397.215 120.625C397.215 109.542 399.673 99.9583 404.59 91.875C409.59 83.7917 416.548 77.5417 425.465 73.125C434.382 68.625 444.715 66.375 456.465 66.375C462.632 66.375 468.132 67.0417 472.965 68.375C477.882 69.625 482.007 71.0833 485.34 72.75C488.673 74.3333 491.007 75.7083 492.34 76.875L474.59 102.875C474.007 102.292 472.923 101.458 471.34 100.375C469.84 99.2917 467.882 98.3333 465.465 97.5C463.048 96.6667 460.173 96.25 456.84 96.25C452.757 96.25 448.923 97.2917 445.34 99.375C441.84 101.458 439.007 104.333 436.84 108C434.673 111.667 433.59 115.875 433.59 120.625C433.59 125.375 434.673 129.625 436.84 133.375C439.007 137.042 441.84 139.917 445.34 142C448.923 144.083 452.757 145.125 456.84 145.125ZM554.91 175C543.66 175 533.66 172.708 524.91 168.125C516.243 163.458 509.41 157.083 504.41 149C499.493 140.833 497.035 131.5 497.035 121C497.035 110.5 499.493 101.167 504.41 93C509.41 84.75 516.243 78.25 524.91 73.5C533.66 68.75 543.66 66.375 554.91 66.375C566.16 66.375 576.077 68.75 584.66 73.5C593.243 78.25 599.952 84.75 604.785 93C609.618 101.167 612.035 110.5 612.035 121C612.035 131.5 609.618 140.833 604.785 149C599.952 157.083 593.243 163.458 584.66 168.125C576.077 172.708 566.16 175 554.91 175ZM554.91 143.75C559.243 143.75 562.993 142.792 566.16 140.875C569.327 138.958 571.785 136.25 573.535 132.75C575.285 129.25 576.16 125.292 576.16 120.875C576.16 116.375 575.285 112.375 573.535 108.875C571.785 105.375 569.327 102.625 566.16 100.625C562.993 98.625 559.243 97.625 554.91 97.625C550.577 97.625 546.785 98.625 543.535 100.625C540.368 102.625 537.868 105.375 536.035 108.875C534.285 112.375 533.41 116.375 533.41 120.875C533.41 125.292 534.285 129.25 536.035 132.75C537.868 136.25 540.368 138.958 543.535 140.875C546.785 142.792 550.577 143.75 554.91 143.75ZM767.936 66.375C775.686 66.375 782.519 68 788.436 71.25C794.352 74.4167 798.977 79.3333 802.311 86C805.727 92.6667 807.436 101.25 807.436 111.75V172H770.061V117.5C770.061 110.333 768.977 104.542 766.811 100.125C764.644 95.7083 760.352 93.5 753.936 93.5C750.102 93.5 746.727 94.5 743.811 96.5C740.894 98.5 738.644 101.292 737.061 104.875C735.477 108.375 734.686 112.583 734.686 117.5V172H699.811V117.5C699.811 110.333 698.602 104.542 696.186 100.125C693.852 95.7083 689.686 93.5 683.686 93.5C679.852 93.5 676.477 94.5 673.561 96.5C670.644 98.4167 668.394 101.167 666.811 104.75C665.311 108.25 664.561 112.5 664.561 117.5V172H626.811V69.375H664.561V84C665.561 81.4167 667.727 78.7917 671.061 76.125C674.477 73.375 678.686 71.0833 683.686 69.25C688.686 67.3333 693.977 66.375 699.561 66.375C705.644 66.375 710.727 67.2917 714.811 69.125C718.894 70.875 722.227 73.25 724.811 76.25C727.477 79.25 729.602 82.5 731.186 86C732.352 83 734.644 80 738.061 77C741.561 73.9167 745.894 71.375 751.061 69.375C756.311 67.375 761.936 66.375 767.936 66.375ZM854.697 128.75C854.947 132.417 856.114 135.667 858.197 138.5C860.281 141.333 863.156 143.583 866.822 145.25C870.572 146.833 874.989 147.625 880.072 147.625C884.906 147.625 889.239 147.125 893.072 146.125C896.989 145.125 900.364 143.875 903.197 142.375C906.114 140.875 908.364 139.333 909.947 137.75L924.697 161.25C922.614 163.5 919.656 165.708 915.822 167.875C912.072 169.958 907.114 171.667 900.947 173C894.781 174.333 886.989 175 877.572 175C866.239 175 856.156 172.875 847.322 168.625C838.489 164.375 831.531 158.125 826.447 149.875C821.364 141.625 818.822 131.542 818.822 119.625C818.822 109.625 820.989 100.625 825.322 92.625C829.739 84.5417 836.114 78.1667 844.447 73.5C852.781 68.75 862.822 66.375 874.572 66.375C885.739 66.375 895.406 68.4167 903.572 72.5C911.822 76.5833 918.156 82.6667 922.572 90.75C927.072 98.75 929.322 108.75 929.322 120.75C929.322 121.417 929.281 122.75 929.197 124.75C929.197 126.75 929.114 128.083 928.947 128.75H854.697ZM893.572 108.875C893.489 106.208 892.781 103.583 891.447 101C890.114 98.3333 888.114 96.1667 885.447 94.5C882.781 92.75 879.364 91.875 875.197 91.875C871.031 91.875 867.489 92.7083 864.572 94.375C861.739 95.9583 859.572 98.0417 858.072 100.625C856.572 103.208 855.739 105.958 855.572 108.875H893.572Z" fill="#EEEFF4"/>
</svg>
